# xmcd CD database file
#
# Track frame offsets:
#	150
#	13694
#	28392
#	46338
#	66540
#	80206
#	92339
#	110802
#	130755
#	142180
#	157641
#	171748
#	196468
#	209174
#
# Disc length: 3011 seconds
#
# Revision: 0
# Processed by: cddbd v1.4PL0 Copyright (c) Steve Scherf et al.
# Submitted via: CDex 1.50Beta7
#
DISCID=d80bc10e
DTITLE=Fapy Lafertin Quintet - Fine and Dandy with Tim Kliphouse
DYEAR=2003
DGENRE=Jazz
TTITLE0=Eveline
TTITLE1=Blue Lou
TTITLE2=Tango For Django
TTITLE3=Lover Man
TTITLE4=Coquette
TTITLE5=Fine And Dandy
TTITLE6=Aurore
TTITLE7=I Love You
TTITLE8=Caravane Rabouine
TTITLE9=Exactly Like You
TTITLE10=The Charleston
TTITLE11=I Can't Get Started
TTITLE12=How High The Moon
TTITLE13=Fleur de Lavande
EXTD=YEAR: 2003
EXTT0=
EXTT1=
EXTT2=
EXTT3=
EXTT4=
EXTT5=
EXTT6=
EXTT7=
EXTT8=
EXTT9=
EXTT10=
EXTT11=
EXTT12=
EXTT13=
PLAYORDER=
